<svg width="50" height="50" viewBox="0 0 50 50" fill="none" xmlns="http://www.w3.org/2000/svg">
<path d="M25 28.5L32.25 35.75C32.7083 36.2083 33.2916 36.4375 34 36.4375C34.7083 36.4375 35.2916 36.2083 35.75 35.75C36.2083 35.2916 36.4375 34.7083 36.4375 34C36.4375 33.2916 36.2083 32.7083 35.75 32.25L28.5 25L35.75 17.75C36.2083 17.2917 36.4375 16.7083 36.4375 16C36.4375 15.2917 36.2083 14.7083 35.75 14.25C35.2916 13.7917 34.7083 13.5625 34 13.5625C33.2916 13.5625 32.7083 13.7917 32.25 14.25L25 21.5L17.75 14.25C17.2917 13.7917 16.7083 13.5625 16 13.5625C15.2917 13.5625 14.7083 13.7917 14.25 14.25C13.7917 14.7083 13.5625 15.2917 13.5625 16C13.5625 16.7083 13.7917 17.2917 14.25 17.75L21.5 25L14.25 32.25C13.7917 32.7083 13.5625 33.2916 13.5625 34C13.5625 34.7083 13.7917 35.2916 14.25 35.75C14.7083 36.2083 15.2917 36.4375 16 36.4375C16.7083 36.4375 17.2917 36.2083 17.75 35.75L25 28.5ZM25 50C21.5417 50 18.2917 49.3433 15.25 48.03C12.2083 46.7166 9.5625 44.9358 7.3125 42.6875C5.0625 40.4391 3.28167 37.7933 1.97 34.75C0.658336 31.7066 0.00166983 28.4566 3.16455e-06 25C-0.0016635 21.5433 0.655003 18.2933 1.97 15.25C3.285 12.2067 5.06583 9.56083 7.3125 7.3125C9.55916 5.06416 12.205 3.28333 15.25 1.97C18.295 0.656667 21.545 0 25 0C28.455 0 31.705 0.656667 34.75 1.97C37.795 3.28333 40.4408 5.06416 42.6875 7.3125C44.9341 9.56083 46.7158 12.2067 48.0325 15.25C49.3491 18.2933 50.005 21.5433 50 25C49.995 28.4566 49.3383 31.7066 48.03 34.75C46.7216 37.7933 44.9408 40.4391 42.6875 42.6875C40.4341 44.9358 37.7883 46.7175 34.75 48.0325C31.7116 49.3475 28.4616 50.0033 25 50ZM25 45C30.5833 45 35.3125 43.0625 39.1875 39.1875C43.0625 35.3125 45 30.5833 45 25C45 19.4167 43.0625 14.6875 39.1875 10.8125C35.3125 6.9375 30.5833 5 25 5C19.4167 5 14.6875 6.9375 10.8125 10.8125C6.9375 14.6875 5 19.4167 5 25C5 30.5833 6.9375 35.3125 10.8125 39.1875C14.6875 43.0625 19.4167 45 25 45Z" fill="#7F7F7F"/>
</svg>
