<svg width="30" height="35" viewBox="0 0 30 35" fill="none" xmlns="http://www.w3.org/2000/svg">
<path d="M14.7092 28.8834C13.6275 28.8834 12.6174 28.4689 11.8648 27.7162L3.84158 19.693C3.08894 18.9405 2.67441 17.9303 2.67441 16.8487C2.67441 14.6367 4.47401 12.8371 6.686 12.8371H8.02319V4.01159C8.02319 1.7996 9.82279 0 12.0348 0H17.3836C19.5956 0 21.3952 1.7996 21.3952 4.01159V12.8371H22.7324C24.9443 12.8371 26.7439 14.6367 26.7439 16.8487C26.7439 17.9303 26.3295 18.9404 25.5768 19.693L17.5537 27.7162C16.8009 28.469 15.7908 28.8834 14.7092 28.8834ZM6.686 15.5115C5.94867 15.5115 5.3488 16.1113 5.3488 16.8487C5.3488 17.2159 5.48513 17.5545 5.73264 17.802L13.7559 25.8251C14.0034 26.0727 14.342 26.2091 14.7092 26.2091C15.0764 26.2091 15.415 26.0727 15.6626 25.8251L23.6857 17.802C23.9332 17.5545 24.0696 17.2159 24.0696 16.8487C24.0696 16.1113 23.4697 15.5115 22.7324 15.5115H20.058C19.3194 15.5115 18.7208 14.9128 18.7208 14.1743V4.01159C18.7208 3.27426 18.1209 2.67439 17.3836 2.67439H12.0348C11.2975 2.67439 10.6976 3.27426 10.6976 4.01159V14.1743C10.6976 14.9128 10.0989 15.5115 9.36039 15.5115H6.686Z" fill="#FCFCFC"/>
<path d="M25.4068 34.2323H4.01162C1.79963 34.2323 3.05176e-05 32.4327 3.05176e-05 30.2207V27.5463C3.05176e-05 26.8077 0.598693 26.2091 1.33723 26.2091C2.07576 26.2091 2.67442 26.8077 2.67442 27.5463V30.2207C2.67442 30.958 3.27429 31.5579 4.01162 31.5579H25.4068C26.1441 31.5579 26.744 30.958 26.744 30.2207V27.5463C26.744 26.8077 27.3426 26.2091 28.0812 26.2091C28.8197 26.2091 29.4184 26.8077 29.4184 27.5463V30.2207C29.4184 32.4327 27.6188 34.2323 25.4068 34.2323Z" fill="#FCFCFC"/>
</svg>
