<svg width="32" height="32" viewBox="0 0 32 32" fill="none" xmlns="http://www.w3.org/2000/svg">
<path d="M5.33358 13.3333L4.39091 14.276L3.44824 13.3333L4.39091 12.3907L5.33358 13.3333ZM28.0002 24C28.0002 24.3536 27.8598 24.6928 27.6097 24.9428C27.3597 25.1929 27.0205 25.3333 26.6669 25.3333C26.3133 25.3333 25.9741 25.1929 25.7241 24.9428C25.4741 24.6928 25.3336 24.3536 25.3336 24H28.0002ZM11.0576 20.9427L4.39091 14.276L6.27624 12.3907L12.9429 19.0573L11.0576 20.9427ZM4.39091 12.3907L11.0576 5.724L12.9429 7.60933L6.27624 14.276L4.39091 12.3907ZM5.33358 12H18.6669V14.6667H5.33358V12ZM28.0002 21.3333V24H25.3336V21.3333H28.0002ZM18.6669 12C21.1423 12 23.5162 12.9833 25.2666 14.7337C27.0169 16.484 28.0002 18.858 28.0002 21.3333H25.3336C25.3336 19.5652 24.6312 17.8695 23.381 16.6193C22.1307 15.369 20.435 14.6667 18.6669 14.6667V12Z" fill="#680D3A"/>
</svg>
